<svg width="33" height="35" viewBox="0 0 33 35" fill="none" xmlns="http://www.w3.org/2000/svg">
<g filter="url(#filter0_d_1_46)">
<mask id="path-1-inside-1_1_46" fill="white">
<path d="M9.625 6.875C8.89565 6.875 8.19618 7.16473 7.68046 7.68046C7.16473 8.19618 6.875 8.89565 6.875 9.625V23.375C6.875 24.1043 7.16473 24.8038 7.68046 25.3195C8.19618 25.8353 8.89565 26.125 9.625 26.125H23.375C24.1043 26.125 24.8038 25.8353 25.3195 25.3195C25.8353 24.8038 26.125 24.1043 26.125 23.375V9.625C26.125 8.89565 25.8353 8.19618 25.3195 7.68046C24.8038 7.16473 24.1043 6.875 23.375 6.875H9.625ZM15.125 21.1942L11.4029 17.4721L13.3471 15.5279L15.125 17.3058L20.3404 12.0904L22.2846 14.0346L15.125 21.1942Z"/>
</mask>
<path d="M9.625 6.875C8.89565 6.875 8.19618 7.16473 7.68046 7.68046C7.16473 8.19618 6.875 8.89565 6.875 9.625V23.375C6.875 24.1043 7.16473 24.8038 7.68046 25.3195C8.19618 25.8353 8.89565 26.125 9.625 26.125H23.375C24.1043 26.125 24.8038 25.8353 25.3195 25.3195C25.8353 24.8038 26.125 24.1043 26.125 23.375V9.625C26.125 8.89565 25.8353 8.19618 25.3195 7.68046C24.8038 7.16473 24.1043 6.875 23.375 6.875H9.625ZM15.125 21.1942L11.4029 17.4721L13.3471 15.5279L15.125 17.3058L20.3404 12.0904L22.2846 14.0346L15.125 21.1942Z" fill="#186AE5"/>
<path d="M9.625 6.875L9.625 -5.125L9.625 6.875ZM6.875 9.625H-5.125H6.875ZM6.875 23.375L-5.125 23.375L6.875 23.375ZM23.375 6.875V-5.125V6.875ZM15.125 21.1942L6.63972 29.6795L15.125 38.1648L23.6103 29.6795L15.125 21.1942ZM11.4029 17.4721L2.91759 8.98684L-5.56769 17.4721L2.91759 25.9574L11.4029 17.4721ZM13.3471 15.5279L21.8324 7.04259L13.3471 -1.44269L4.86184 7.04259L13.3471 15.5279ZM15.125 17.3058L6.63972 25.791L15.125 34.2763L23.6103 25.791L15.125 17.3058ZM20.3404 12.0904L28.8257 3.60509L20.3404 -4.88018L11.8551 3.60509L20.3404 12.0904ZM22.2846 14.0346L30.7699 22.5199L39.2552 14.0346L30.7699 5.54934L22.2846 14.0346ZM9.625 -5.125C5.71306 -5.125 1.96134 -3.57099 -0.804825 -0.804825L16.1657 16.1657C14.431 17.9005 12.0783 18.875 9.625 18.875L9.625 -5.125ZM-0.804825 -0.804825C-3.57099 1.96134 -5.125 5.71306 -5.125 9.625L18.875 9.625C18.875 12.0783 17.9005 14.431 16.1657 16.1657L-0.804825 -0.804825ZM-5.125 9.625V23.375H18.875V9.625H-5.125ZM-5.125 23.375C-5.125 27.2869 -3.57099 31.0387 -0.804825 33.8048L16.1657 16.8343C17.9004 18.569 18.875 20.9217 18.875 23.375L-5.125 23.375ZM-0.804825 33.8048C1.96133 36.571 5.71305 38.125 9.625 38.125V14.125C12.0783 14.125 14.431 15.0996 16.1657 16.8343L-0.804825 33.8048ZM9.625 38.125H23.375V14.125H9.625V38.125ZM23.375 38.125C27.287 38.125 31.0387 36.571 33.8048 33.8048L16.8343 16.8343C18.569 15.0996 20.9217 14.125 23.375 14.125V38.125ZM33.8048 33.8048C36.571 31.0387 38.125 27.287 38.125 23.375H14.125C14.125 20.9217 15.0996 18.569 16.8343 16.8343L33.8048 33.8048ZM38.125 23.375V9.625H14.125V23.375H38.125ZM38.125 9.625C38.125 5.71305 36.571 1.96133 33.8048 -0.804825L16.8343 16.1657C15.0996 14.431 14.125 12.0783 14.125 9.625H38.125ZM33.8048 -0.804825C31.0387 -3.57099 27.2869 -5.125 23.375 -5.125L23.375 18.875C20.9217 18.875 18.569 17.9004 16.8343 16.1657L33.8048 -0.804825ZM23.375 -5.125H9.625V18.875H23.375V-5.125ZM23.6103 12.709L19.8882 8.98684L2.91759 25.9574L6.63972 29.6795L23.6103 12.709ZM19.8882 25.9574L21.8324 24.0132L4.86184 7.04259L2.91759 8.98684L19.8882 25.9574ZM4.86184 24.0132L6.63972 25.791L23.6103 8.82047L21.8324 7.04259L4.86184 24.0132ZM23.6103 25.791L28.8257 20.5757L11.8551 3.60509L6.63972 8.82047L23.6103 25.791ZM11.8551 20.5757L13.7993 22.5199L30.7699 5.54934L28.8257 3.60509L11.8551 20.5757ZM13.7993 5.54934L6.63972 12.709L23.6103 29.6795L30.7699 22.5199L13.7993 5.54934Z" fill="white" mask="url(#path-1-inside-1_1_46)"/>
</g>
<defs>
<filter id="filter0_d_1_46" x="-4" y="0" width="41" height="41" filterUnits="userSpaceOnUse" color-interpolation-filters="sRGB">
<feFlood flood-opacity="0" result="BackgroundImageFix"/>
<feColorMatrix in="SourceAlpha" type="matrix" values="0 0 0 0 0 0 0 0 0 0 0 0 0 0 0 0 0 0 127 0" result="hardAlpha"/>
<feOffset dy="4"/>
<feGaussianBlur stdDeviation="2"/>
<feComposite in2="hardAlpha" operator="out"/>
<feColorMatrix type="matrix" values="0 0 0 0 0 0 0 0 0 0 0 0 0 0 0 0 0 0 0.25 0"/>
<feBlend mode="normal" in2="BackgroundImageFix" result="effect1_dropShadow_1_46"/>
<feBlend mode="normal" in="SourceGraphic" in2="effect1_dropShadow_1_46" result="shape"/>
</filter>
</defs>
</svg>
